<svg width="95" height="20" viewBox="0 0 95 20" fill="none" xmlns="http://www.w3.org/2000/svg">
<path d="M0.524414 0.533447H3.48841L5.92801 13.6306L8.23081 0.533447H11.2632L7.54681 19.0477H4.24081L0.524414 0.533447Z" fill="#101828"/>
<path d="M13.147 0.533447H20.899V2.9106H16.4986V8.2363H19.9642V10.5906H16.4986V16.7392H20.9446V19.0477H13.147V0.533447Z" fill="#101828"/>
<path d="M22.8994 0.533447H27.3454C29.291 0.533447 30.7426 0.906781 31.7002 1.65344C32.6578 2.38487 33.1366 3.64963 33.1366 5.44774C33.1366 6.62107 32.9618 7.58107 32.6122 8.32774C32.2778 9.05917 31.6925 9.5925 30.8566 9.92774L33.433 19.0477H30.0586L27.847 10.5677H26.251V19.0477H22.8994V0.533447ZM27.3226 8.46487C28.2802 8.46487 28.9566 8.24392 29.3518 7.80202C29.7622 7.36011 29.9674 6.63631 29.9674 5.6306C29.9674 4.65536 29.785 3.94679 29.4202 3.50488C29.0706 3.06298 28.4322 2.84201 27.505 2.84201H26.251V8.46487H27.3226Z" fill="#101828"/>
<path d="M40.6296 19.2991C38.7144 19.2991 37.3464 18.7886 36.5256 17.7676C35.7048 16.7315 35.2944 15.2229 35.2944 13.2419V6.29336C35.2944 4.32764 35.7048 2.84192 36.5256 1.83621C37.3464 0.830494 38.7144 0.327637 40.6296 0.327637C42.5296 0.327637 43.89 0.830494 44.7108 1.83621C45.5316 2.84192 45.942 4.32764 45.942 6.29336V13.2419C45.942 15.2076 45.524 16.7086 44.688 17.7448C43.8672 18.781 42.5144 19.2991 40.6296 19.2991ZM40.6296 16.8076C41.3744 16.8076 41.876 16.5715 42.1344 16.0991C42.3928 15.6267 42.522 14.941 42.522 14.0419V5.51621C42.522 4.61717 42.3928 3.93906 42.1344 3.48192C41.8912 3.02478 41.3896 2.7962 40.6296 2.7962C39.8696 2.7962 39.3604 3.0324 39.102 3.50479C38.8436 3.96193 38.7144 4.6324 38.7144 5.51621V14.0419C38.7144 14.941 38.8436 15.6267 39.102 16.0991C39.3604 16.5715 39.8696 16.8076 40.6296 16.8076Z" fill="#101828"/>
<path d="M48.438 0.533447H50.7864L55.278 11.0935V0.533447H58.0596V19.0477H55.8253L51.3108 7.98488V19.0477H48.438V0.533447Z" fill="#101828"/>
<path d="M60.9535 0.533447H64.2823V19.0477H60.9535V0.533447Z" fill="#101828"/>
<path d="M72.1115 19.2991C70.1963 19.2991 68.8359 18.7657 68.0303 17.6991C67.2399 16.6172 66.8447 15.0934 66.8447 13.1276V6.52193C66.8447 4.49526 67.2399 2.9562 68.0303 1.90478C68.8207 0.853351 70.1811 0.327637 72.1115 0.327637C73.9203 0.327637 75.2047 0.78478 75.9647 1.69906C76.7247 2.61335 77.1047 3.93144 77.1047 5.65335V7.20764H73.8671V5.60764C73.8671 4.9524 73.8367 4.44192 73.7759 4.0762C73.7151 3.69525 73.5555 3.3905 73.2971 3.16192C73.0539 2.91811 72.6663 2.7962 72.1343 2.7962C71.5871 2.7962 71.1767 2.92574 70.9031 3.18479C70.6295 3.4286 70.4471 3.76383 70.3559 4.1905C70.2799 4.60193 70.2419 5.14287 70.2419 5.81335V13.8362C70.2419 14.8876 70.3787 15.6495 70.6523 16.1219C70.9259 16.5791 71.4199 16.8076 72.1343 16.8076C72.6511 16.8076 73.0311 16.6857 73.2743 16.4419C73.5327 16.1981 73.6923 15.8781 73.7531 15.4819C73.8291 15.0705 73.8671 14.5295 73.8671 13.8591V12.1905H77.1047V13.6762C77.1047 15.4591 76.7323 16.8457 75.9875 17.8362C75.2427 18.8115 73.9507 19.2991 72.1115 19.2991Z" fill="#101828"/>
<path d="M82.2129 0.533447H85.8153L89.5089 19.0477H86.3853L85.6557 14.7735H82.4409L81.6885 19.0477H78.5193L82.2129 0.533447ZM85.2909 12.6249L84.0369 4.85344L82.7829 12.6249H85.2909Z" fill="#101828"/>
<path d="M91.0469 15.9163H94.0565V19.0477H91.0469V15.9163Z" fill="#101828"/>
</svg>
