<svg width="608" height="23" viewBox="0 0 608 23" fill="none" xmlns="http://www.w3.org/2000/svg">
<path d="M9.53823 3.60998C9.70902 3.19934 10.2907 3.19934 10.4615 3.60998L12.5276 8.57746C12.5996 8.75058 12.7624 8.86887 12.9493 8.88385L18.3121 9.31378C18.7555 9.34932 18.9352 9.90258 18.5975 10.1919L14.5116 13.6919C14.3692 13.8139 14.307 14.0053 14.3505 14.1876L15.5988 19.4208C15.702 19.8534 15.2314 20.1954 14.8518 19.9635L10.2605 17.1592C10.1005 17.0615 9.89927 17.0615 9.73926 17.1592L5.14795 19.9635C4.7684 20.1954 4.29777 19.8534 4.40097 19.4208L5.64927 14.1876C5.69278 14.0053 5.63059 13.8139 5.4882 13.6919L1.4023 10.1919C1.06453 9.90258 1.2443 9.34932 1.68762 9.31378L7.05043 8.88385C7.23733 8.86887 7.40013 8.75058 7.47214 8.57746L9.53823 3.60998Z" fill="#FEC84B"/>
<path d="M57.5382 3.60998C57.709 3.19934 58.2907 3.19934 58.4615 3.60998L60.5276 8.57746C60.5996 8.75058 60.7624 8.86887 60.9493 8.88385L66.3121 9.31378C66.7555 9.34932 66.9352 9.90258 66.5975 10.1919L62.5116 13.6919C62.3692 13.8139 62.307 14.0053 62.3505 14.1876L63.5988 19.4208C63.702 19.8534 63.2314 20.1954 62.8518 19.9635L58.2605 17.1592C58.1005 17.0615 57.8993 17.0615 57.7393 17.1592L53.1479 19.9635C52.7684 20.1954 52.2978 19.8534 52.401 19.4208L53.6493 14.1876C53.6928 14.0053 53.6306 13.8139 53.4882 13.6919L49.4023 10.1919C49.0645 9.90258 49.2443 9.34932 49.6876 9.31378L55.0504 8.88385C55.2373 8.86887 55.4001 8.75058 55.4721 8.57746L57.5382 3.60998Z" fill="#FEC84B"/>
<path d="M105.538 3.60998C105.709 3.19934 106.291 3.19934 106.462 3.60998L108.528 8.57746C108.6 8.75058 108.762 8.86887 108.949 8.88385L114.312 9.31378C114.756 9.34932 114.935 9.90258 114.598 10.1919L110.512 13.6919C110.369 13.8139 110.307 14.0053 110.351 14.1876L111.599 19.4208C111.702 19.8534 111.231 20.1954 110.852 19.9635L106.261 17.1592C106.101 17.0615 105.899 17.0615 105.739 17.1592L101.148 19.9635C100.768 20.1954 100.298 19.8534 100.401 19.4208L101.649 14.1876C101.693 14.0053 101.631 13.8139 101.488 13.6919L97.4023 10.1919C97.0645 9.90258 97.2443 9.34932 97.6876 9.31378L103.05 8.88385C103.237 8.86887 103.4 8.75058 103.472 8.57746L105.538 3.60998Z" fill="#FEC84B"/>
<path d="M81.5382 3.60998C81.709 3.19934 82.2907 3.19934 82.4615 3.60998L84.5276 8.57746C84.5996 8.75058 84.7624 8.86887 84.9493 8.88385L90.3121 9.31378C90.7555 9.34932 90.9352 9.90258 90.5975 10.1919L86.5116 13.6919C86.3692 13.8139 86.307 14.0053 86.3505 14.1876L87.5988 19.4208C87.702 19.8534 87.2314 20.1954 86.8518 19.9635L82.2605 17.1592C82.1005 17.0615 81.8993 17.0615 81.7393 17.1592L77.1479 19.9635C76.7684 20.1954 76.2978 19.8534 76.401 19.4208L77.6493 14.1876C77.6928 14.0053 77.6306 13.8139 77.4882 13.6919L73.4023 10.1919C73.0645 9.90258 73.2443 9.34932 73.6876 9.31378L79.0504 8.88385C79.2373 8.86887 79.4001 8.75058 79.4721 8.57746L81.5382 3.60998Z" fill="#FEC84B"/>
<path d="M33.5382 3.60998C33.709 3.19934 34.2907 3.19934 34.4615 3.60998L36.5276 8.57746C36.5996 8.75058 36.7624 8.86887 36.9493 8.88385L42.3121 9.31378C42.7555 9.34932 42.9352 9.90258 42.5975 10.1919L38.5116 13.6919C38.3692 13.8139 38.307 14.0053 38.3505 14.1876L39.5988 19.4208C39.702 19.8534 39.2314 20.1954 38.8518 19.9635L34.2605 17.1592C34.1005 17.0615 33.8993 17.0615 33.7393 17.1592L29.1479 19.9635C28.7684 20.1954 28.2978 19.8534 28.401 19.4208L29.6493 14.1876C29.6928 14.0053 29.6306 13.8139 29.4882 13.6919L25.4023 10.1919C25.0645 9.90258 25.2443 9.34932 25.6876 9.31378L31.0504 8.88385C31.2373 8.86887 31.4001 8.75058 31.4721 8.57746L33.5382 3.60998Z" fill="#FEC84B"/>
</svg>
